<svg version="1.1" xmlns="http://www.w3.org/2000/svg" xmlns:xlink="http://www.w3.org/1999/xlink" width="403.4609375" height="133"><defs/><g><g transform="translate(-74,-239) scale(1,1)"><rect fill="#C0C0C0" stroke="none" x="91" y="256" width="383.4609375" height="113" opacity="0.2"/></g><g transform="translate(-74,-239) scale(1,1)"><rect fill="#91ffec" stroke="none" x="84" y="249" width="383.4609375" height="113"/></g><g transform="translate(-74,-239) scale(1,1)"><path fill="none" stroke="#000000" d="M 84 249 L 467.4609375 249 L 467.4609375 362 L 84 362 L 84 249 Z Z" stroke-miterlimit="10"/></g><g transform="translate(-74,-239) scale(1,1)"><path fill="none" stroke="#000000" d="M 84 285 L 467.4609375 285" stroke-miterlimit="10"/></g><g transform="translate(-74,-239) scale(1,1)"><g><path fill="none" stroke="none"/><text fill="#000000" stroke="none" font-family="Courier" font-size="12px" font-style="normal" font-weight="normal" text-decoration="none" x="236.1240234375" y="265.5">«interface»</text></g></g><g transform="translate(-74,-239) scale(1,1)"><g><path fill="none" stroke="none"/><text fill="#000000" stroke="none" font-family="Courier" font-size="12px" font-style="normal" font-weight="bold" text-decoration="none" x="221.7216796875" y="279.5">FancyStringList</text></g></g><g transform="translate(-74,-239) scale(1,1)"><g><path fill="none" stroke="none"/><text fill="#000000" stroke="none" font-family="Courier" font-size="12px" font-style="italic" font-weight="normal" text-decoration="none" x="89" y="301.5">+add(index: int, items: StringList): boolean</text></g></g><g transform="translate(-74,-239) scale(1,1)"><g><path fill="none" stroke="none"/><text fill="#000000" stroke="none" font-family="Courier" font-size="12px" font-style="italic" font-weight="normal" text-decoration="none" x="89" y="315.5">+append(items: StringList): boolean</text></g></g><g transform="translate(-74,-239) scale(1,1)"><g><path fill="none" stroke="none"/><text fill="#000000" stroke="none" font-family="Courier" font-size="12px" font-style="italic" font-weight="normal" text-decoration="none" x="89" y="329.5">+prepend(items: StringList): boolean</text></g></g><g transform="translate(-74,-239) scale(1,1)"><g><path fill="none" stroke="none"/><text fill="#000000" stroke="none" font-family="Courier" font-size="12px" font-style="italic" font-weight="normal" text-decoration="none" x="89" y="343.5">+slice(start: int, stop: int, step: int): StringList</text></g></g><g transform="translate(-74,-239) scale(1,1)"><g><path fill="none" stroke="none"/><text fill="#000000" stroke="none" font-family="Courier" font-size="12px" font-style="italic" font-weight="normal" text-decoration="none" x="89" y="357.5">+reverse(): StringList</text></g></g></g></svg>