<svg version="1.1" xmlns="http://www.w3.org/2000/svg" xmlns:xlink="http://www.w3.org/1999/xlink" width="897.0703125" height="217"><defs/><g><g transform="translate(-10,-10) scale(1,1)"><rect fill="#C0C0C0" stroke="none" x="27" y="69" width="383.4609375" height="113" opacity="0.2"/></g><g transform="translate(-10,-10) scale(1,1)"><rect fill="#91ffec" stroke="none" x="20" y="62" width="383.4609375" height="113"/></g><g transform="translate(-10,-10) scale(1,1)"><path fill="none" stroke="#000000" d="M 20 62 L 403.4609375 62 L 403.4609375 175 L 20 175 L 20 62 Z Z" stroke-miterlimit="10"/></g><g transform="translate(-10,-10) scale(1,1)"><path fill="none" stroke="#000000" d="M 20 98 L 403.4609375 98" stroke-miterlimit="10"/></g><g transform="translate(-10,-10) scale(1,1)"><g><path fill="none" stroke="none"/><text fill="#000000" stroke="none" font-family="Courier" font-size="12px" font-style="normal" font-weight="normal" text-decoration="none" x="172.1240234375" y="78.5">«interface»</text></g></g><g transform="translate(-10,-10) scale(1,1)"><g><path fill="none" stroke="none"/><text fill="#000000" stroke="none" font-family="Courier" font-size="12px" font-style="normal" font-weight="bold" text-decoration="none" x="157.7216796875" y="92.5">FancyStringList</text></g></g><g transform="translate(-10,-10) scale(1,1)"><g><path fill="none" stroke="none"/><text fill="#000000" stroke="none" font-family="Courier" font-size="12px" font-style="italic" font-weight="normal" text-decoration="none" x="25" y="114.5">+add(index: int, items: StringList): boolean</text></g></g><g transform="translate(-10,-10) scale(1,1)"><g><path fill="none" stroke="none"/><text fill="#000000" stroke="none" font-family="Courier" font-size="12px" font-style="italic" font-weight="normal" text-decoration="none" x="25" y="128.5">+append(items: StringList): boolean</text></g></g><g transform="translate(-10,-10) scale(1,1)"><g><path fill="none" stroke="none"/><text fill="#000000" stroke="none" font-family="Courier" font-size="12px" font-style="italic" font-weight="normal" text-decoration="none" x="25" y="142.5">+prepend(items: StringList): boolean</text></g></g><g transform="translate(-10,-10) scale(1,1)"><g><path fill="none" stroke="none"/><text fill="#000000" stroke="none" font-family="Courier" font-size="12px" font-style="italic" font-weight="normal" text-decoration="none" x="25" y="156.5">+slice(start: int, stop: int, step: int): StringList</text></g></g><g transform="translate(-10,-10) scale(1,1)"><g><path fill="none" stroke="none"/><text fill="#000000" stroke="none" font-family="Courier" font-size="12px" font-style="italic" font-weight="normal" text-decoration="none" x="25" y="170.5">+reverse(): StringList</text></g></g><g transform="translate(-10,-10) scale(1,1)"><rect fill="#C0C0C0" stroke="none" x="463" y="27" width="441.0703125" height="197" opacity="0.2"/></g><g transform="translate(-10,-10) scale(1,1)"><rect fill="#91ffec" stroke="none" x="456" y="20" width="441.0703125" height="197"/></g><g transform="translate(-10,-10) scale(1,1)"><path fill="none" stroke="#000000" d="M 456 20 L 897.0703125 20 L 897.0703125 217 L 456 217 L 456 20 Z Z" stroke-miterlimit="10"/></g><g transform="translate(-10,-10) scale(1,1)"><path fill="none" stroke="#000000" d="M 456 56 L 897.0703125 56" stroke-miterlimit="10"/></g><g transform="translate(-10,-10) scale(1,1)"><g><path fill="none" stroke="none"/><text fill="#000000" stroke="none" font-family="Courier" font-size="12px" font-style="normal" font-weight="normal" text-decoration="none" x="636.9287109375" y="36.5">«interface»</text></g></g><g transform="translate(-10,-10) scale(1,1)"><g><path fill="none" stroke="none"/><text fill="#000000" stroke="none" font-family="Courier" font-size="12px" font-style="normal" font-weight="bold" text-decoration="none" x="640.529296875" y="50.5">StringList</text></g></g><g transform="translate(-10,-10) scale(1,1)"><g><path fill="none" stroke="none"/><text fill="#000000" stroke="none" font-family="Courier" font-size="12px" font-style="italic" font-weight="normal" text-decoration="none" x="461" y="72.5">+add(index: int, item: String): boolean</text></g></g><g transform="translate(-10,-10) scale(1,1)"><g><path fill="none" stroke="none"/><text fill="#000000" stroke="none" font-family="Courier" font-size="12px" font-style="italic" font-weight="normal" text-decoration="none" x="461" y="86.5">+append(item: String): boolean</text></g></g><g transform="translate(-10,-10) scale(1,1)"><g><path fill="none" stroke="none"/><text fill="#000000" stroke="none" font-family="Courier" font-size="12px" font-style="italic" font-weight="normal" text-decoration="none" x="461" y="100.5">+clear(): void</text></g></g><g transform="translate(-10,-10) scale(1,1)"><g><path fill="none" stroke="none"/><text fill="#000000" stroke="none" font-family="Courier" font-size="12px" font-style="italic" font-weight="normal" text-decoration="none" x="461" y="114.5">+get(index: int): String</text></g></g><g transform="translate(-10,-10) scale(1,1)"><g><path fill="none" stroke="none"/><text fill="#000000" stroke="none" font-family="Courier" font-size="12px" font-style="italic" font-weight="normal" text-decoration="none" x="461" y="128.5">+isEmpty(): boolean</text></g></g><g transform="translate(-10,-10) scale(1,1)"><g><path fill="none" stroke="none"/><text fill="#000000" stroke="none" font-family="Courier" font-size="12px" font-style="italic" font-weight="normal" text-decoration="none" x="461" y="142.5">+makeString(start: String, sep: String, end: String): String</text></g></g><g transform="translate(-10,-10) scale(1,1)"><g><path fill="none" stroke="none"/><text fill="#000000" stroke="none" font-family="Courier" font-size="12px" font-style="italic" font-weight="normal" text-decoration="none" x="461" y="156.5">+prepend(item: String): boolean</text></g></g><g transform="translate(-10,-10) scale(1,1)"><g><path fill="none" stroke="none"/><text fill="#000000" stroke="none" font-family="Courier" font-size="12px" font-style="italic" font-weight="normal" text-decoration="none" x="461" y="170.5">+remove(index: int): String</text></g></g><g transform="translate(-10,-10) scale(1,1)"><g><path fill="none" stroke="none"/><text fill="#000000" stroke="none" font-family="Courier" font-size="12px" font-style="italic" font-weight="normal" text-decoration="none" x="461" y="184.5">+size(): int</text></g></g><g transform="translate(-10,-10) scale(1,1)"><g><path fill="none" stroke="none"/><text fill="#000000" stroke="none" font-family="Courier" font-size="12px" font-style="italic" font-weight="normal" text-decoration="none" x="461" y="198.5">+slice(start: int, stop: int): StringList</text></g></g><g transform="translate(-10,-10) scale(1,1)"><g><path fill="none" stroke="none"/><text fill="#000000" stroke="none" font-family="Courier" font-size="12px" font-style="italic" font-weight="normal" text-decoration="none" x="461" y="212.5">+toString(): String</text></g></g><g transform="translate(-10,-10) scale(1,1)"><path fill="none" stroke="#000000" d="M 404 118 L 455 118" stroke-miterlimit="10"/></g><g transform="translate(-10,-10) scale(1,1)"><path fill="#FFFFFF" stroke="none" d="M 434.6746502847517 126.41903551203198 L 455 118 L 434.6746502847517 109.58096448796803"/></g><g transform="translate(-10,-10) scale(1,1)"><path fill="none" stroke="#000000" d="M 434.6746502847517 126.41903551203198 L 455 118 L 434.6746502847517 109.58096448796803 L 434.6746502847517 126.41903551203198" stroke-miterlimit="10"/></g></g></svg>