<svg version="1.1" xmlns="http://www.w3.org/2000/svg" xmlns:xlink="http://www.w3.org/1999/xlink" width="288.2421875" height="185"><defs/><g><g transform="translate(-646,-222) scale(1,1)"><rect fill="#C0C0C0" stroke="none" x="663" y="239" width="268.2421875" height="165" opacity="0.2"/></g><g transform="translate(-646,-222) scale(1,1)"><rect fill="#fffca0" stroke="none" x="656" y="232" width="268.2421875" height="165"/></g><g transform="translate(-646,-222) scale(1,1)"><path fill="none" stroke="#000000" d="M 656 232 L 924.2421875 232 L 924.2421875 397 L 656 397 L 656 232 Z Z" stroke-miterlimit="10"/></g><g transform="translate(-646,-222) scale(1,1)"><path fill="none" stroke="#000000" d="M 656 256 L 924.2421875 256" stroke-miterlimit="10"/></g><g transform="translate(-646,-222) scale(1,1)"><path fill="none" stroke="#000000" d="M 656 292 L 924.2421875 292" stroke-miterlimit="10"/></g><g transform="translate(-646,-222) scale(1,1)"><g><path fill="none" stroke="none"/><text fill="#000000" stroke="none" font-family="Courier" font-size="12px" font-style="normal" font-weight="bold" text-decoration="none" x="775.71875" y="250.5">Node</text></g></g><g transform="translate(-646,-222) scale(1,1)"><g><path fill="none" stroke="none"/><text fill="#000000" stroke="none" font-family="Courier" font-size="12px" font-style="normal" font-weight="normal" text-decoration="none" x="661" y="272.5">~item: String</text></g></g><g transform="translate(-646,-222) scale(1,1)"><g><path fill="none" stroke="none"/><text fill="#000000" stroke="none" font-family="Courier" font-size="12px" font-style="normal" font-weight="normal" text-decoration="none" x="661" y="286.5">~next: Node</text></g></g><g transform="translate(-646,-222) scale(1,1)"><g><path fill="none" stroke="none"/><text fill="#000000" stroke="none" font-family="Courier" font-size="12px" font-style="normal" font-weight="normal" text-decoration="none" x="661" y="308.5">«new»+Node(item: String, next: Node)</text></g></g><g transform="translate(-646,-222) scale(1,1)"><g><path fill="none" stroke="none"/><text fill="#000000" stroke="none" font-family="Courier" font-size="12px" font-style="normal" font-weight="normal" text-decoration="none" x="661" y="322.5">«new»+Node(item: String)</text></g></g><g transform="translate(-646,-222) scale(1,1)"><g><path fill="none" stroke="none"/><text fill="#000000" stroke="none" font-family="Courier" font-size="12px" font-style="normal" font-weight="normal" text-decoration="none" x="661" y="336.5">+getItem(): String</text></g></g><g transform="translate(-646,-222) scale(1,1)"><g><path fill="none" stroke="none"/><text fill="#000000" stroke="none" font-family="Courier" font-size="12px" font-style="normal" font-weight="normal" text-decoration="none" x="661" y="350.5">+setItem(item: String)</text></g></g><g transform="translate(-646,-222) scale(1,1)"><g><path fill="none" stroke="none"/><text fill="#000000" stroke="none" font-family="Courier" font-size="12px" font-style="normal" font-weight="normal" text-decoration="none" x="661" y="364.5">+getNext(): Node</text></g></g><g transform="translate(-646,-222) scale(1,1)"><g><path fill="none" stroke="none"/><text fill="#000000" stroke="none" font-family="Courier" font-size="12px" font-style="normal" font-weight="normal" text-decoration="none" x="661" y="378.5">+setNext(next: Node)</text></g></g><g transform="translate(-646,-222) scale(1,1)"><g><path fill="none" stroke="none"/><text fill="#000000" stroke="none" font-family="Courier" font-size="12px" font-style="normal" font-weight="normal" text-decoration="none" x="661" y="392.5">+hasNext(): boolean</text></g></g></g></svg>