<svg version="1.1" xmlns="http://www.w3.org/2000/svg" xmlns:xlink="http://www.w3.org/1999/xlink" width="461.0703125" height="217"><defs/><g><g transform="translate(-166,-170) scale(1,1)"><rect fill="#C0C0C0" stroke="none" x="183" y="187" width="441.0703125" height="197" opacity="0.2"/></g><g transform="translate(-166,-170) scale(1,1)"><rect fill="#91ffec" stroke="none" x="176" y="180" width="441.0703125" height="197"/></g><g transform="translate(-166,-170) scale(1,1)"><path fill="none" stroke="#000000" d="M 176 180 L 617.0703125 180 L 617.0703125 377 L 176 377 L 176 180 Z Z" stroke-miterlimit="10"/></g><g transform="translate(-166,-170) scale(1,1)"><path fill="none" stroke="#000000" d="M 176 216 L 617.0703125 216" stroke-miterlimit="10"/></g><g transform="translate(-166,-170) scale(1,1)"><g><path fill="none" stroke="none"/><text fill="#000000" stroke="none" font-family="Courier" font-size="12px" font-style="normal" font-weight="normal" text-decoration="none" x="356.9287109375" y="196.5">«interface»</text></g></g><g transform="translate(-166,-170) scale(1,1)"><g><path fill="none" stroke="none"/><text fill="#000000" stroke="none" font-family="Courier" font-size="12px" font-style="normal" font-weight="bold" text-decoration="none" x="360.529296875" y="210.5">StringList</text></g></g><g transform="translate(-166,-170) scale(1,1)"><g><path fill="none" stroke="none"/><text fill="#000000" stroke="none" font-family="Courier" font-size="12px" font-style="italic" font-weight="normal" text-decoration="none" x="181" y="232.5">+add(index: int, item: String): boolean</text></g></g><g transform="translate(-166,-170) scale(1,1)"><g><path fill="none" stroke="none"/><text fill="#000000" stroke="none" font-family="Courier" font-size="12px" font-style="italic" font-weight="normal" text-decoration="none" x="181" y="246.5">+append(item: String): boolean</text></g></g><g transform="translate(-166,-170) scale(1,1)"><g><path fill="none" stroke="none"/><text fill="#000000" stroke="none" font-family="Courier" font-size="12px" font-style="italic" font-weight="normal" text-decoration="none" x="181" y="260.5">+clear(): void</text></g></g><g transform="translate(-166,-170) scale(1,1)"><g><path fill="none" stroke="none"/><text fill="#000000" stroke="none" font-family="Courier" font-size="12px" font-style="italic" font-weight="normal" text-decoration="none" x="181" y="274.5">+get(index: int): String</text></g></g><g transform="translate(-166,-170) scale(1,1)"><g><path fill="none" stroke="none"/><text fill="#000000" stroke="none" font-family="Courier" font-size="12px" font-style="italic" font-weight="normal" text-decoration="none" x="181" y="288.5">+isEmpty(): boolean</text></g></g><g transform="translate(-166,-170) scale(1,1)"><g><path fill="none" stroke="none"/><text fill="#000000" stroke="none" font-family="Courier" font-size="12px" font-style="italic" font-weight="normal" text-decoration="none" x="181" y="302.5">+makeString(start: String, sep: String, end: String): String</text></g></g><g transform="translate(-166,-170) scale(1,1)"><g><path fill="none" stroke="none"/><text fill="#000000" stroke="none" font-family="Courier" font-size="12px" font-style="italic" font-weight="normal" text-decoration="none" x="181" y="316.5">+prepend(item: String): boolean</text></g></g><g transform="translate(-166,-170) scale(1,1)"><g><path fill="none" stroke="none"/><text fill="#000000" stroke="none" font-family="Courier" font-size="12px" font-style="italic" font-weight="normal" text-decoration="none" x="181" y="330.5">+remove(index: int): String</text></g></g><g transform="translate(-166,-170) scale(1,1)"><g><path fill="none" stroke="none"/><text fill="#000000" stroke="none" font-family="Courier" font-size="12px" font-style="italic" font-weight="normal" text-decoration="none" x="181" y="344.5">+size(): int</text></g></g><g transform="translate(-166,-170) scale(1,1)"><g><path fill="none" stroke="none"/><text fill="#000000" stroke="none" font-family="Courier" font-size="12px" font-style="italic" font-weight="normal" text-decoration="none" x="181" y="358.5">+slice(start: int, stop: int): StringList</text></g></g><g transform="translate(-166,-170) scale(1,1)"><g><path fill="none" stroke="none"/><text fill="#000000" stroke="none" font-family="Courier" font-size="12px" font-style="italic" font-weight="normal" text-decoration="none" x="181" y="372.5">+toString(): String</text></g></g></g></svg>